<svg width="130" height="52" viewBox="0 0 868 214" fill="none" xmlns="http://www.w3.org/2000/svg">
<path d="M799.113 213.042L303.001 209.925L382.461 103.899L304.232 -0.000414596L800.345 3.11636L863.822 98.0398C866.007 101.307 866.076 105.551 863.998 108.886L799.113 213.042Z" fill="#4C97F3"/>
<path d="M446.232 164.536C439.747 164.536 434.157 163.427 429.464 161.208C424.856 158.989 421.443 155.747 419.224 151.48C417.091 147.213 416.493 142.051 417.432 135.992H435.48C435.139 138.637 435.352 141.027 436.12 143.16C436.973 145.293 438.424 147 440.472 148.28C442.52 149.475 445.165 150.072 448.408 150.072C451.139 150.072 453.613 149.688 455.832 148.92C458.136 148.067 460.013 146.829 461.464 145.208C463 143.501 463.981 141.325 464.408 138.68C464.749 136.803 464.621 135.139 464.024 133.688C463.427 132.237 462.488 130.957 461.208 129.848C459.928 128.739 458.392 127.715 456.6 126.776C454.808 125.837 452.845 124.984 450.712 124.216C448.579 123.448 446.403 122.68 444.184 121.912C437.272 119.437 432.28 116.28 429.208 112.44C426.136 108.6 425.112 103.48 426.136 97.08C427.16 91.8747 429.293 87.3947 432.536 83.64C435.779 79.8853 439.875 76.984 444.824 74.936C449.773 72.888 455.192 71.864 461.08 71.864C467.139 71.864 472.259 72.9307 476.44 75.064C480.707 77.112 483.821 80.0987 485.784 84.024C487.747 87.9493 488.344 92.5573 487.576 97.848H469.016C469.357 95.544 469.144 93.5387 468.376 91.832C467.693 90.1253 466.499 88.76 464.792 87.736C463.171 86.712 461.037 86.2 458.392 86.2C456.173 86.1147 454.04 86.456 451.992 87.224C450.029 87.9067 448.365 89.016 447 90.552C445.635 92.0027 444.739 93.9227 444.312 96.312C443.971 98.0187 444.013 99.4693 444.44 100.664C444.952 101.859 445.72 102.925 446.744 103.864C447.768 104.803 449.048 105.699 450.584 106.552C452.205 107.32 453.997 108.088 455.96 108.856C458.008 109.624 460.184 110.435 462.488 111.288C465.645 112.397 468.589 113.677 471.32 115.128C474.051 116.579 476.397 118.328 478.36 120.376C480.323 122.339 481.688 124.813 482.456 127.8C483.309 130.701 483.352 134.243 482.584 138.424C481.731 143.203 479.725 147.597 476.568 151.608C473.496 155.533 469.4 158.691 464.28 161.08C459.16 163.384 453.144 164.536 446.232 164.536ZM543.701 163L559.573 73.4H576.853L560.981 163H543.701ZM487.253 163L503.125 73.4H520.405L504.533 163H487.253ZM509.013 124.216L511.573 110.264H555.989L553.429 124.216H509.013ZM615.895 164.536C607.02 164.536 599.554 162.573 593.495 158.648C587.436 154.723 583.127 149.304 580.567 142.392C578.007 135.395 577.538 127.331 579.159 118.2C580.354 111.373 582.53 105.144 585.687 99.512C588.93 93.7947 592.898 88.888 597.591 84.792C602.37 80.696 607.66 77.5387 613.463 75.32C619.351 73.016 625.623 71.864 632.279 71.864C641.239 71.864 648.748 73.8267 654.807 77.752C660.866 81.6773 665.175 87.1387 667.735 94.136C670.295 101.048 670.764 109.069 669.143 118.2C667.948 125.027 665.772 131.299 662.615 137.016C659.458 142.648 655.49 147.512 650.711 151.608C646.018 155.704 640.727 158.904 634.839 161.208C628.951 163.427 622.636 164.536 615.895 164.536ZM618.711 149.048C622.807 149.048 626.647 148.323 630.231 146.872C633.815 145.421 637.058 143.373 639.959 140.728C642.86 138.083 645.292 134.883 647.255 131.128C649.303 127.288 650.711 122.979 651.479 118.2C652.588 111.8 652.46 106.339 651.095 101.816C649.73 97.208 647.255 93.6667 643.671 91.192C640.087 88.7173 635.436 87.48 629.719 87.48C625.538 87.48 621.612 88.2053 617.943 89.656C614.274 91.0213 610.988 93.0267 608.087 95.672C605.271 98.3173 602.882 101.56 600.919 105.4C598.956 109.155 597.591 113.421 596.823 118.2C595.714 124.515 595.842 129.976 597.207 134.584C598.572 139.192 601.09 142.776 604.759 145.336C608.428 147.811 613.079 149.048 618.711 149.048ZM671.503 163L687.375 73.4H721.039C728.292 73.4 734.052 74.6373 738.319 77.112C742.586 79.5013 745.53 82.7867 747.151 86.968C748.772 91.1493 749.114 95.8853 748.175 101.176C747.322 106.04 745.402 110.563 742.415 114.744C739.428 118.925 735.332 122.339 730.127 124.984C725.007 127.544 718.735 128.824 711.311 128.824H694.799L688.783 163H671.503ZM697.231 114.872H712.591C718.138 114.872 722.319 113.635 725.135 111.16C728.036 108.685 729.871 105.357 730.639 101.176C731.322 96.824 730.639 93.4533 728.591 91.064C726.628 88.6747 722.916 87.48 717.455 87.48H702.095L697.231 114.872Z" fill="black"/>
<path d="M729.034 157.186C729.034 161.778 725.436 165.5 720.999 165.5C716.562 165.5 712.965 161.778 712.965 157.186C712.965 152.594 716.562 148.872 720.999 148.872C725.436 148.872 729.034 152.594 729.034 157.186Z" fill="#15405C"/>
<path d="M41.6 164.536C32.7253 164.536 25.3867 162.616 19.584 158.776C13.8667 154.851 9.89867 149.432 7.68 142.52C5.46133 135.523 5.16267 127.416 6.784 118.2C7.97867 111.373 10.0693 105.144 13.056 99.512C16.0427 93.7947 19.7547 88.888 24.192 84.792C28.7147 80.6107 33.792 77.4107 39.424 75.192C45.1413 72.9733 51.328 71.864 57.984 71.864C68.48 71.864 76.544 74.3813 82.176 79.416C87.8933 84.4507 90.7947 91.5333 90.88 100.664H76.8C76.544 95.3733 74.7093 91.192 71.296 88.12C67.8827 84.9627 62.7627 83.384 55.936 83.384C51.328 83.384 47.0187 84.2373 43.008 85.944C39.0827 87.5653 35.5413 89.912 32.384 92.984C29.2267 96.056 26.5813 99.8107 24.448 104.248C22.3147 108.6 20.736 113.464 19.712 118.84C18.432 126.093 18.56 132.28 20.096 137.4C21.632 142.435 24.4053 146.317 28.416 149.048C32.4267 151.693 37.4613 153.016 43.52 153.016C50.3467 153.016 56.064 151.523 60.672 148.536C65.28 145.464 68.6933 141.368 70.912 136.248H84.736C82.5173 142.136 79.36 147.213 75.264 151.48C71.168 155.747 66.2613 158.989 60.544 161.208C54.912 163.427 48.5973 164.536 41.6 164.536ZM133.133 164.536C124.344 164.536 116.962 162.616 110.989 158.776C105.016 154.851 100.749 149.432 98.189 142.52C95.7143 135.523 95.2877 127.416 96.909 118.2C98.1037 111.373 100.28 105.144 103.437 99.512C106.594 93.7947 110.477 88.888 115.085 84.792C119.778 80.696 125.026 77.5387 130.829 75.32C136.717 73.016 142.946 71.864 149.517 71.864C158.392 71.864 165.816 73.8267 171.789 77.752C177.762 81.6773 181.986 87.1387 184.461 94.136C186.936 101.048 187.362 109.069 185.741 118.2C184.546 125.112 182.37 131.384 179.213 137.016C176.141 142.648 172.258 147.555 167.565 151.736C162.957 155.832 157.709 158.989 151.821 161.208C146.018 163.427 139.789 164.536 133.133 164.536ZM135.181 153.144C139.618 153.144 143.885 152.376 147.981 150.84C152.077 149.219 155.789 146.915 159.117 143.928C162.53 140.856 165.389 137.187 167.693 132.92C170.082 128.568 171.746 123.661 172.685 118.2C173.965 110.947 173.837 104.717 172.301 99.512C170.765 94.3067 167.949 90.3387 163.853 87.608C159.757 84.792 154.466 83.384 147.981 83.384C143.202 83.384 138.68 84.1947 134.413 85.816C130.232 87.352 126.477 89.6133 123.149 92.6C119.821 95.5867 117.005 99.256 114.701 103.608C112.482 107.875 110.904 112.739 109.965 118.2C108.685 125.453 108.813 131.683 110.349 136.888C111.97 142.093 114.872 146.104 119.053 148.92C123.234 151.736 128.61 153.144 135.181 153.144ZM188.003 163L203.875 73.4H216.675L202.595 152.888H243.555L241.763 163H188.003ZM249.503 163L265.375 73.4H294.047C304.543 73.4 312.82 75.2347 318.879 78.904C325.023 82.5733 329.162 87.7787 331.295 94.52C333.428 101.176 333.684 109.112 332.063 118.328C330.954 125.24 328.948 131.427 326.047 136.888C323.231 142.349 319.604 147.043 315.167 150.968C310.73 154.808 305.396 157.795 299.167 159.928C293.023 161.976 286.026 163 278.175 163H249.503ZM264.223 152.248H279.711C287.988 152.248 294.772 150.883 300.063 148.152C305.354 145.421 309.492 141.539 312.479 136.504C315.551 131.384 317.684 125.325 318.879 118.328C320.244 111.245 320.287 105.144 319.007 100.024C317.812 94.904 314.996 90.9787 310.559 88.248C306.207 85.5173 299.892 84.152 291.615 84.152H276.255L264.223 152.248Z" fill="#E4E4E4"/>
</svg>
